<svg width="46" height="45" viewBox="0 0 46 45" fill="none" xmlns="http://www.w3.org/2000/svg">
<path d="M25.4276 9.80991H27.4276H25.4276ZM17.6177 2V0V2ZM2 39.2126L0.000266671 39.18C-0.0126896 39.9733 0.444539 40.6993 1.16562 41.0303L2 39.2126ZM17.6177 23.8479V25.8479V23.8479ZM33.2355 39.2126L34.0691 41.0306C34.7906 40.6998 35.2482 39.9736 35.2352 39.18L33.2355 39.2126ZM17.6177 42.6115L17.6204 40.6115H17.6177V42.6115ZM40 12C40 10.8954 39.1046 10 38 10C36.8954 10 36 10.8954 36 12H40ZM36 24C36 25.1046 36.8954 26 38 26C39.1046 26 40 25.1046 40 24H36ZM44 20C45.1046 20 46 19.1046 46 18C46 16.8954 45.1046 16 44 16V20ZM32 16C30.8954 16 30 16.8954 30 18C30 19.1046 30.8954 20 32 20V16ZM23.4276 9.80991C23.4276 11.3508 22.8155 12.8286 21.726 13.9181L24.5544 16.7466C26.3941 14.9068 27.4276 12.4117 27.4276 9.80991H23.4276ZM21.726 13.9181C20.6364 15.0077 19.1586 15.6198 17.6177 15.6198V19.6198C20.2195 19.6198 22.7147 18.5863 24.5544 16.7466L21.726 13.9181ZM17.6177 15.6198C16.0768 15.6198 14.5991 15.0077 13.5095 13.9181L10.6811 16.7466C12.5208 18.5863 15.016 19.6198 17.6177 19.6198V15.6198ZM13.5095 13.9181C12.4199 12.8286 11.8078 11.3508 11.8078 9.80991H7.80782C7.80782 12.4117 8.84136 14.9068 10.6811 16.7466L13.5095 13.9181ZM11.8078 9.80991C11.8078 8.26902 12.4199 6.79125 13.5095 5.70168L10.6811 2.87326C8.84136 4.71297 7.80782 7.20816 7.80782 9.80991H11.8078ZM13.5095 5.70168C14.5991 4.61211 16.0768 4 17.6177 4V0C15.016 0 12.5208 1.03354 10.6811 2.87326L13.5095 5.70168ZM17.6177 4C19.1586 4 20.6364 4.61211 21.726 5.70168L24.5544 2.87326C22.7147 1.03354 20.2195 0 17.6177 0V4ZM21.726 5.70168C22.8155 6.79125 23.4276 8.26903 23.4276 9.80991H27.4276C27.4276 7.20816 26.3941 4.71297 24.5544 2.87326L21.726 5.70168ZM3.99973 39.2453C4.05809 35.6721 5.5185 32.265 8.06602 29.7587L5.26078 26.9073C1.96508 30.1496 0.0757612 34.5574 0.000266671 39.18L3.99973 39.2453ZM8.06602 29.7587C10.6135 27.2525 14.0441 25.8479 17.6177 25.8479V21.8479C12.9945 21.8479 8.55649 23.665 5.26078 26.9073L8.06602 29.7587ZM17.6177 25.8479C21.1914 25.8479 24.6219 27.2525 27.1694 29.7587L29.9747 26.9073C26.679 23.665 22.241 21.8479 17.6177 21.8479V25.8479ZM27.1694 29.7587C29.717 32.265 31.1774 35.6721 31.2357 39.2453L35.2352 39.18C35.1597 34.5574 33.2704 30.1496 29.9747 26.9073L27.1694 29.7587ZM32.4018 37.3947C27.7646 39.521 22.722 40.6184 17.6204 40.6115L17.615 44.6115C23.2938 44.6192 28.9071 43.3976 34.0691 41.0306L32.4018 37.3947ZM17.6177 40.6115C12.3382 40.6115 7.33248 39.4598 2.83438 37.395L1.16562 41.0303C6.17686 43.3307 11.7509 44.6115 17.6177 44.6115V40.6115ZM36 12V18H40V12H36ZM36 18V24H40V18H36ZM44 16L38 16V20L44 20V16ZM38 16L32 16V20H38V16Z" fill="#26262E"/>
</svg>
