<svg width="48" height="46" viewBox="0 0 48 46" fill="none" xmlns="http://www.w3.org/2000/svg">
<path d="M2.66667 13.6667H12C13.9627 13.6667 15.7147 14.7093 16.936 16.336C17.8034 14.7306 18.8706 13.2414 20.112 11.904C17.9707 9.70934 15.136 8.33334 12 8.33334H2.66667C1.95942 8.33334 1.28115 8.61429 0.781048 9.11439C0.280951 9.61448 0 10.2928 0 11C0 11.7072 0.280951 12.3855 0.781048 12.8856C1.28115 13.3857 1.95942 13.6667 2.66667 13.6667ZM23.16 21.9627C24.6293 17.544 29.176 13.6667 32.8907 13.6667H37.792L34.344 17.1147C34.0964 17.3623 33.9 17.6562 33.766 17.9797C33.632 18.3032 33.5631 18.6499 33.5631 19C33.5631 19.3501 33.632 19.6969 33.766 20.0203C33.9 20.3438 34.0964 20.6378 34.344 20.8853C34.5916 21.1329 34.8855 21.3293 35.209 21.4633C35.5325 21.5973 35.8792 21.6663 36.2293 21.6663C36.5795 21.6663 36.9262 21.5973 37.2497 21.4633C37.5732 21.3293 37.8671 21.1329 38.1147 20.8853L48 11L38.1147 1.11467C37.8671 0.867086 37.5732 0.67069 37.2497 0.536697C36.9262 0.402705 36.5795 0.33374 36.2293 0.33374C35.8792 0.33374 35.5325 0.402705 35.209 0.536697C34.8855 0.67069 34.5916 0.867086 34.344 1.11467C34.0964 1.36226 33.9 1.65618 33.766 1.97967C33.632 2.30315 33.5631 2.64986 33.5631 3C33.5631 3.35014 33.632 3.69685 33.766 4.02034C33.9 4.34382 34.0964 4.63775 34.344 4.88534L37.792 8.33334H32.8907C26.8267 8.33334 20.328 13.5787 18.0987 20.2773L16.84 24.04C15.1307 29.176 11.3147 32.3333 9.33333 32.3333H2.66667C1.95942 32.3333 1.28115 32.6143 0.781048 33.1144C0.280951 33.6145 0 34.2928 0 35C0 35.7072 0.280951 36.3855 0.781048 36.8856C1.28115 37.3857 1.95942 37.6667 2.66667 37.6667H9.33333C14.232 37.6667 19.6347 32.5333 21.9013 25.7227L23.16 21.9627ZM34.344 25.1147C34.0961 25.3621 33.8995 25.656 33.7654 25.9795C33.6312 26.303 33.5621 26.6498 33.5621 27C33.5621 27.3502 33.6312 27.697 33.7654 28.0205C33.8995 28.344 34.0961 28.6379 34.344 28.8853L37.792 32.3333H31.5573C28.176 32.3333 25.344 29.9573 24.3813 26.712C23.6717 28.7731 22.6945 30.7321 21.4747 32.5387C23.8373 35.6373 27.456 37.6667 31.5573 37.6667H37.792L34.344 41.1147C34.0964 41.3623 33.9 41.6562 33.766 41.9797C33.632 42.3032 33.5631 42.6499 33.5631 43C33.5631 43.3501 33.632 43.6968 33.766 44.0203C33.9 44.3438 34.0964 44.6378 34.344 44.8853C34.5916 45.1329 34.8855 45.3293 35.209 45.4633C35.5325 45.5973 35.8792 45.6663 36.2293 45.6663C36.5795 45.6663 36.9262 45.5973 37.2497 45.4633C37.5732 45.3293 37.8671 45.1329 38.1147 44.8853L48 35L38.1147 25.1147C37.8672 24.8668 37.5734 24.6702 37.2498 24.536C36.9263 24.4019 36.5796 24.3328 36.2293 24.3328C35.8791 24.3328 35.5323 24.4019 35.2088 24.536C34.8853 24.6702 34.5914 24.8668 34.344 25.1147Z" fill="#26262E"/>
</svg>
