<svg width="34" height="44" viewBox="0 0 34 44" fill="none" xmlns="http://www.w3.org/2000/svg">
<path d="M4.19048 14.6667H23.0476V10.4762C23.0476 8.73016 22.4365 7.24603 21.2143 6.02381C19.9921 4.80159 18.5079 4.19048 16.7619 4.19048C15.0159 4.19048 13.5317 4.80159 12.3095 6.02381C11.0873 7.24603 10.4762 8.73016 10.4762 10.4762H6.28571C6.28571 7.57778 7.30749 5.10679 9.35105 3.06324C11.3932 1.02108 13.8635 0 16.7619 0C19.6603 0 22.1313 1.02108 24.1749 3.06324C26.217 5.10679 27.2381 7.57778 27.2381 10.4762V14.6667H29.3333C30.4857 14.6667 31.4726 15.0766 32.2939 15.8966C33.1138 16.7179 33.5238 17.7048 33.5238 18.8571V39.8095C33.5238 40.9619 33.1138 41.9488 32.2939 42.7701C31.4726 43.59 30.4857 44 29.3333 44H4.19048C3.0381 44 2.05194 43.59 1.232 42.7701C0.410666 41.9488 0 40.9619 0 39.8095V18.8571C0 17.7048 0.410666 16.7179 1.232 15.8966C2.05194 15.0766 3.0381 14.6667 4.19048 14.6667ZM4.19048 39.8095H29.3333V18.8571H4.19048V39.8095ZM16.7619 33.5238C17.9143 33.5238 18.9011 33.1138 19.7225 32.2939C20.5424 31.4726 20.9524 30.4857 20.9524 29.3333C20.9524 28.181 20.5424 27.1941 19.7225 26.3728C18.9011 25.5528 17.9143 25.1429 16.7619 25.1429C15.6095 25.1429 14.6234 25.5528 13.8034 26.3728C12.9821 27.1941 12.5714 28.181 12.5714 29.3333C12.5714 30.4857 12.9821 31.4726 13.8034 32.2939C14.6234 33.1138 15.6095 33.5238 16.7619 33.5238ZM4.19048 39.8095V18.8571V39.8095Z" fill="#26262E"/>
</svg>
