<svg width="41" height="44" viewBox="0 0 41 44" fill="none" xmlns="http://www.w3.org/2000/svg">
<path d="M33.6735 30.5306C32.074 30.5306 30.598 31.0918 29.4418 32.0291L17.8133 23.6163C18.008 22.5476 18.008 21.4524 17.8133 20.3837L29.4418 11.9709C30.598 12.9082 32.074 13.4694 33.6735 13.4694C37.3888 13.4694 40.4082 10.45 40.4082 6.73469C40.4082 3.01939 37.3888 0 33.6735 0C29.9582 0 26.9388 3.01939 26.9388 6.73469C26.9388 7.38571 27.0286 8.00867 27.2026 8.60357L16.1577 16.601C14.5189 14.4291 11.9148 13.0204 8.97959 13.0204C4.01837 13.0204 0 17.0388 0 22C0 26.9612 4.01837 30.9796 8.97959 30.9796C11.9148 30.9796 14.5189 29.5709 16.1577 27.399L27.2026 35.3964C27.0286 35.9913 26.9388 36.6199 26.9388 37.2653C26.9388 40.9806 29.9582 44 33.6735 44C37.3888 44 40.4082 40.9806 40.4082 37.2653C40.4082 33.55 37.3888 30.5306 33.6735 30.5306ZM33.6735 3.81633C35.2842 3.81633 36.5918 5.12398 36.5918 6.73469C36.5918 8.34541 35.2842 9.65306 33.6735 9.65306C32.0628 9.65306 30.7551 8.34541 30.7551 6.73469C30.7551 5.12398 32.0628 3.81633 33.6735 3.81633ZM8.97959 26.9388C6.25765 26.9388 4.04082 24.7219 4.04082 22C4.04082 19.2781 6.25765 17.0612 8.97959 17.0612C11.7015 17.0612 13.9184 19.2781 13.9184 22C13.9184 24.7219 11.7015 26.9388 8.97959 26.9388ZM33.6735 40.1837C32.0628 40.1837 30.7551 38.876 30.7551 37.2653C30.7551 35.6546 32.0628 34.3469 33.6735 34.3469C35.2842 34.3469 36.5918 35.6546 36.5918 37.2653C36.5918 38.876 35.2842 40.1837 33.6735 40.1837Z" fill="#26262E"/>
</svg>
