<svg width="12" height="15" viewBox="0 0 12 15" fill="none" xmlns="http://www.w3.org/2000/svg">
<path d="M10.6666 0.333334H2.29163C2.22288 0.333334 2.16663 0.389584 2.16663 0.458334V1.33333C2.16663 1.40208 2.22288 1.45833 2.29163 1.45833H10.0416V12.2083C10.0416 12.2771 10.0979 12.3333 10.1666 12.3333H11.0416C11.1104 12.3333 11.1666 12.2771 11.1666 12.2083V0.833334C11.1666 0.556771 10.9432 0.333334 10.6666 0.333334ZM8.66663 2.33333H0.666626C0.390063 2.33333 0.166626 2.55677 0.166626 2.83333V11.1255C0.166626 11.2583 0.219751 11.3849 0.313501 11.4786L3.02131 14.1865C3.05569 14.2208 3.09475 14.249 3.13694 14.2724V14.3021H3.20256C3.25725 14.3224 3.31506 14.3333 3.37444 14.3333H8.66663C8.94319 14.3333 9.16663 14.1099 9.16663 13.8333V2.83333C9.16663 2.55677 8.94319 2.33333 8.66663 2.33333ZM3.13538 12.7115L1.79006 11.3646H3.13538V12.7115ZM8.04163 13.2083H4.13538V10.9896C4.13538 10.6443 3.85569 10.3646 3.51038 10.3646H1.29163V3.45833H8.04163V13.2083Z" fill="#26262E"/>
</svg>
