<svg width="17" height="17" viewBox="0 0 17 17" fill="none" xmlns="http://www.w3.org/2000/svg">
<path d="M9.48152 8.00741L11.5186 10.0444C11.6679 10.1938 11.7426 10.384 11.7426 10.6148C11.7426 10.8457 11.6679 11.0358 11.5186 11.1852C11.3692 11.3346 11.1791 11.4093 10.9482 11.4093C10.7173 11.4093 10.5272 11.3346 10.3778 11.1852L8.09634 8.9037C8.01486 8.82222 7.95374 8.73042 7.913 8.6283C7.87226 8.52672 7.85189 8.42161 7.85189 8.31296V5.07407C7.85189 4.84321 7.93011 4.64956 8.08656 4.49311C8.24246 4.33721 8.43584 4.25926 8.66671 4.25926C8.89757 4.25926 9.09123 4.33721 9.24767 4.49311C9.40357 4.64956 9.48152 4.84321 9.48152 5.07407V8.00741ZM8.66671 15.6667C7.0235 15.6667 5.55004 15.181 4.24634 14.2098C2.94263 13.2391 2.06671 11.9728 1.61856 10.4111C1.55066 10.1667 1.57456 9.9358 1.69026 9.71852C1.80542 9.50123 1.98523 9.36543 2.22967 9.31111C2.46053 9.25679 2.66777 9.30758 2.85137 9.46348C3.03444 9.61993 3.15992 9.81358 3.22782 10.0444C3.5809 11.2395 4.26345 12.2037 5.27545 12.937C6.2869 13.6704 7.41732 14.037 8.66671 14.037C10.2556 14.037 11.6033 13.4835 12.7098 12.3764C13.8169 11.2699 14.3704 9.92222 14.3704 8.33333C14.3704 6.74444 13.8169 5.39647 12.7098 4.28941C11.6033 3.18289 10.2556 2.62963 8.66671 2.62963C7.72967 2.62963 6.85374 2.84691 6.03893 3.28148C5.22411 3.71605 4.53831 4.31358 3.98152 5.07407H5.40745C5.63831 5.07407 5.83197 5.15202 5.98841 5.30793C6.14431 5.46437 6.22226 5.65802 6.22226 5.88889C6.22226 6.11975 6.14431 6.31314 5.98841 6.46904C5.83197 6.62548 5.63831 6.7037 5.40745 6.7037H2.14819C1.91732 6.7037 1.72394 6.62548 1.56804 6.46904C1.4116 6.31314 1.33337 6.11975 1.33337 5.88889V2.62963C1.33337 2.39877 1.4116 2.20511 1.56804 2.04867C1.72394 1.89277 1.91732 1.81481 2.14819 1.81481C2.37905 1.81481 2.57271 1.89277 2.72915 2.04867C2.88505 2.20511 2.963 2.39877 2.963 2.62963V3.72963C3.6556 2.86049 4.5011 2.18827 5.49952 1.71296C6.4974 1.23765 7.55313 1 8.66671 1C9.68523 1 10.6394 1.19338 11.5292 1.58015C12.4184 1.96746 13.1925 2.4903 13.8514 3.14867C14.5097 3.80758 15.0326 4.58165 15.4199 5.47089C15.8067 6.36067 16 7.31481 16 8.33333C16 9.35185 15.8067 10.3057 15.4199 11.195C15.0326 12.0847 14.5097 12.8588 13.8514 13.5172C13.1925 14.1761 12.4184 14.6992 11.5292 15.0865C10.6394 15.4733 9.68523 15.6667 8.66671 15.6667Z" fill="#26262E"/>
</svg>
