<svg width="105" height="105" viewBox="0 0 105 105" fill="orange" xmlns="http://www.w3.org/2000/svg">
<path d="M59.0926 52.4974C59.0926 56.5716 56.4857 60.6535 51.7169 60.6535C46.9507 60.6535 44.0837 56.5716 44.0837 52.4974C44.0837 48.4258 46.9507 44.3439 51.7169 44.3439C56.4857 44.3439 59.0926 48.4258 59.0926 52.4974ZM81.9974 44.4378V82H52.5H44.4378C34.255 81.9974 23 70.7424 23 60.5622V23H52.5H60.5622C70.7424 23 81.9974 34.255 81.9974 44.4378ZM66.7284 37.7487C64.314 37.7487 62.1729 38.9064 60.8278 40.6964C58.3615 38.8466 55.2968 37.7487 51.9771 37.7487C43.8313 37.7487 37.2284 44.3517 37.2284 52.4974C37.2284 60.6431 43.8313 67.2487 51.9771 67.2487C55.2968 67.2487 58.3615 66.1508 60.8278 64.2984C61.036 64.5768 61.2649 64.8396 61.5121 65.0867C62.8467 66.424 64.6913 67.2487 66.7284 67.2487V37.7487Z" fill="orange"/>
</svg>
