<svg width="44" height="44" viewBox="0 0 44 44" fill="none" xmlns="http://www.w3.org/2000/svg">
<path d="M24.4444 21.0222L30.5556 27.1333C31.0037 27.5815 31.2278 28.1519 31.2278 28.8444C31.2278 29.537 31.0037 30.1074 30.5556 30.5556C30.1074 31.0037 29.537 31.2278 28.8444 31.2278C28.1519 31.2278 27.5815 31.0037 27.1333 30.5556L20.2889 23.7111C20.0444 23.4667 19.8611 23.1913 19.7389 22.8849C19.6167 22.5801 19.5556 22.2648 19.5556 21.9389V12.2222C19.5556 11.5296 19.7902 10.9487 20.2596 10.4793C20.7273 10.0116 21.3074 9.77778 22 9.77778C22.6926 9.77778 23.2736 10.0116 23.7429 10.4793C24.2106 10.9487 24.4444 11.5296 24.4444 12.2222V21.0222ZM22 44C17.0704 44 12.65 42.5431 8.73889 39.6293C4.82778 36.7172 2.2 32.9185 0.855555 28.2333C0.651852 27.5 0.723555 26.8074 1.07067 26.1556C1.41615 25.5037 1.95556 25.0963 2.68889 24.9333C3.38148 24.7704 4.00318 24.9227 4.554 25.3904C5.10318 25.8598 5.47963 26.4407 5.68333 27.1333C6.74259 30.7185 8.79022 33.6111 11.8262 35.8111C14.8606 38.0111 18.2519 39.1111 22 39.1111C26.7667 39.1111 30.8098 37.4505 34.1293 34.1293C37.4505 30.8098 39.1111 26.7667 39.1111 22C39.1111 17.2333 37.4505 13.1894 34.1293 9.86822C30.8098 6.54867 26.7667 4.88889 22 4.88889C19.1889 4.88889 16.5611 5.54074 14.1167 6.84444C11.6722 8.14815 9.61481 9.94074 7.94444 12.2222H12.2222C12.9148 12.2222 13.4958 12.4561 13.9651 12.9238C14.4328 13.3931 14.6667 13.9741 14.6667 14.6667C14.6667 15.3593 14.4328 15.9394 13.9651 16.4071C13.4958 16.8764 12.9148 17.1111 12.2222 17.1111H2.44444C1.75185 17.1111 1.1717 16.8764 0.704 16.4071C0.234667 15.9394 0 15.3593 0 14.6667V4.88889C0 4.1963 0.234667 3.61533 0.704 3.146C1.1717 2.6783 1.75185 2.44444 2.44444 2.44444C3.13704 2.44444 3.718 2.6783 4.18733 3.146C4.65504 3.61533 4.88889 4.1963 4.88889 4.88889V8.18889C6.96667 5.58148 9.50319 3.56481 12.4984 2.13889C15.4921 0.712963 18.6593 0 22 0C25.0556 0 27.918 0.580148 30.5873 1.74044C33.255 2.90237 35.5773 4.47089 37.554 6.446C39.5291 8.42274 41.0976 10.745 42.2596 13.4127C43.4199 16.082 44 18.9444 44 22C44 25.0556 43.4199 27.9172 42.2596 30.5849C41.0976 33.2542 39.5291 35.5764 37.554 37.5516C35.5773 39.5283 33.255 41.0976 30.5873 42.2596C27.918 43.4199 25.0556 44 22 44Z" fill="#26262E"/>
</svg>
