<svg width="30" height="30" viewBox="0 0 30 30" fill="none" xmlns="http://www.w3.org/2000/svg">
<path d="M11.2245 10.1769C10.6913 10.1769 10.1993 10.3639 9.81396 10.6764L5.93777 7.87211C6.00268 7.51585 6.00268 7.15081 5.93777 6.79455L9.81396 3.9903C10.1993 4.30272 10.6913 4.48979 11.2245 4.48979C12.4629 4.48979 13.4694 3.48333 13.4694 2.24489C13.4694 1.00646 12.4629 -3.8147e-06 11.2245 -3.8147e-06C9.98607 -3.8147e-06 8.97961 1.00646 8.97961 2.24489C8.97961 2.4619 9.00954 2.66955 9.06753 2.86785L5.3859 5.53367C4.83964 4.80969 3.97161 4.34013 2.99321 4.34013C1.33947 4.34013 1.52588e-05 5.67959 1.52588e-05 7.33333C1.52588e-05 8.98707 1.33947 10.3265 2.99321 10.3265C3.97161 10.3265 4.83964 9.85697 5.3859 9.13299L9.06753 11.7988C9.00954 11.9971 8.97961 12.2066 8.97961 12.4218C8.97961 13.6602 9.98607 14.6667 11.2245 14.6667C12.4629 14.6667 13.4694 13.6602 13.4694 12.4218C13.4694 11.1833 12.4629 10.1769 11.2245 10.1769ZM11.2245 1.27211C11.7614 1.27211 12.1973 1.70799 12.1973 2.24489C12.1973 2.7818 11.7614 3.21768 11.2245 3.21768C10.6876 3.21768 10.2517 2.7818 10.2517 2.24489C10.2517 1.70799 10.6876 1.27211 11.2245 1.27211ZM2.99321 8.97959C2.0859 8.97959 1.34695 8.24064 1.34695 7.33333C1.34695 6.42602 2.0859 5.68707 2.99321 5.68707C3.90053 5.68707 4.63947 6.42602 4.63947 7.33333C4.63947 8.24064 3.90053 8.97959 2.99321 8.97959ZM11.2245 13.3946C10.6876 13.3946 10.2517 12.9587 10.2517 12.4218C10.2517 11.8849 10.6876 11.449 11.2245 11.449C11.7614 11.449 12.1973 11.8849 12.1973 12.4218C12.1973 12.9587 11.7614 13.3946 11.2245 13.3946Z" fill="#26262E"/>
</svg>
