<svg width="17" height="17" viewBox="0 0 17 17" fill="none" xmlns="http://www.w3.org/2000/svg">
<g clip-path="url(#clip0_4_49907)">
<path d="M1.55558 5.22222H4.66669C5.32091 5.22222 5.90491 5.56977 6.31202 6.112C6.60117 5.57686 6.95689 5.08047 7.37069 4.63466C6.65691 3.90311 5.71202 3.44444 4.66669 3.44444H1.55558C1.31983 3.44444 1.09374 3.53809 0.927036 3.70479C0.760338 3.87149 0.666687 4.09758 0.666687 4.33333C0.666687 4.56908 0.760338 4.79517 0.927036 4.96187C1.09374 5.12857 1.31983 5.22222 1.55558 5.22222ZM8.38669 7.98755C8.87646 6.51466 10.392 5.22222 11.6302 5.22222H13.264L12.1147 6.37155C12.0322 6.45408 11.9667 6.55206 11.922 6.65988C11.8774 6.76771 11.8544 6.88328 11.8544 7C11.8544 7.11671 11.8774 7.23228 11.922 7.34011C11.9667 7.44794 12.0322 7.54591 12.1147 7.62844C12.1972 7.71097 12.2952 7.77643 12.403 7.8211C12.5108 7.86576 12.6264 7.88875 12.7431 7.88875C12.8598 7.88875 12.9754 7.86576 13.0832 7.8211C13.1911 7.77643 13.289 7.71097 13.3716 7.62844L16.6667 4.33333L13.3716 1.03822C13.289 0.95569 13.1911 0.890225 13.0832 0.845561C12.9754 0.800897 12.8598 0.777908 12.7431 0.777908C12.6264 0.777908 12.5108 0.800897 12.403 0.845561C12.2952 0.890225 12.1972 0.95569 12.1147 1.03822C12.0322 1.12075 11.9667 1.21872 11.922 1.32655C11.8774 1.43438 11.8544 1.54995 11.8544 1.66666C11.8544 1.78338 11.8774 1.89895 11.922 2.00677C11.9667 2.1146 12.0322 2.21258 12.1147 2.29511L13.264 3.44444H11.6302C9.60891 3.44444 7.44269 5.19288 6.69958 7.42577L6.28002 8.68C5.71024 10.392 4.43824 11.4444 3.7778 11.4444H1.55558C1.31983 11.4444 1.09374 11.5381 0.927036 11.7048C0.760338 11.8715 0.666687 12.0976 0.666687 12.3333C0.666687 12.5691 0.760338 12.7952 0.927036 12.9619C1.09374 13.1286 1.31983 13.2222 1.55558 13.2222H3.7778C5.41069 13.2222 7.21158 11.5111 7.96713 9.24088L8.38669 7.98755ZM12.1147 9.03822C12.0321 9.1207 11.9665 9.21865 11.9218 9.32649C11.8771 9.43433 11.8541 9.54992 11.8541 9.66666C11.8541 9.7834 11.8771 9.899 11.9218 10.0068C11.9665 10.1147 12.0321 10.2126 12.1147 10.2951L13.264 11.4444H11.1858C10.0587 11.4444 9.11469 10.6524 8.7938 9.57066C8.55727 10.2577 8.23152 10.9107 7.82491 11.5129C8.61247 12.5458 9.81869 13.2222 11.1858 13.2222H13.264L12.1147 14.3716C12.0322 14.4541 11.9667 14.5521 11.922 14.6599C11.8774 14.7677 11.8544 14.8833 11.8544 15C11.8544 15.1167 11.8774 15.2323 11.922 15.3401C11.9667 15.4479 12.0322 15.5459 12.1147 15.6284C12.1972 15.711 12.2952 15.7764 12.403 15.8211C12.5108 15.8658 12.6264 15.8888 12.7431 15.8888C12.8598 15.8888 12.9754 15.8658 13.0832 15.8211C13.1911 15.7764 13.289 15.711 13.3716 15.6284L16.6667 12.3333L13.3716 9.03822C13.2891 8.9556 13.1911 8.89006 13.0833 8.84534C12.9755 8.80061 12.8599 8.77759 12.7431 8.77759C12.6264 8.77759 12.5108 8.80061 12.403 8.84534C12.2951 8.89006 12.1972 8.9556 12.1147 9.03822Z" fill="#26262E"/>
</g>
<defs>
<clipPath id="clip0_4_49907">
<rect width="16" height="16" fill="white" transform="translate(0.666687 0.333328)"/>
</clipPath>
</defs>
</svg>
